<?xml version="1.0" standalone="no"?>
<!DOCTYPE svg PUBLIC "-//W3C//DTD SVG 20010904//EN"
 "http://www.w3.org/TR/2001/REC-SVG-20010904/DTD/svg10.dtd">
<svg version="1.0" xmlns="http://www.w3.org/2000/svg"
 width="1280.000000pt" height="1280.000000pt" viewBox="0 0 1280.000000 1280.000000"
 preserveAspectRatio="xMidYMid meet">
<g transform="translate(0.000000,1280.000000) scale(0.100000,-0.100000)"
fill="#009688" stroke="none">
<path d="M5557 12773 c-12 -19 -47 -201 -62 -326 -17 -139 -20 -429 -5 -562
16 -137 41 -268 51 -258 12 12 97 239 144 383 64 196 60 256 -32 470 -25 58
-55 150 -67 204 -13 55 -26 94 -29 89z"/>
<path d="M6028 12354 c-3 -5 -9 -24 -13 -43 -20 -95 -71 -187 -220 -401 -76
-108 -88 -177 -60 -345 19 -114 19 -188 0 -251 -14 -46 -21 -53 -104 -107 -50
-33 -94 -56 -100 -53 -5 3 -18 -5 -28 -18 -10 -14 -81 -71 -158 -128 -77 -57
-196 -151 -265 -208 -150 -126 -465 -432 -599 -585 -549 -620 -959 -1365
-1186 -2155 -19 -67 -39 -116 -46 -118 -8 -1 -134 116 -280 260 -198 196 -269
272 -277 298 -6 19 -29 101 -53 183 -23 81 -44 146 -46 144 -2 -2 10 -57 25
-123 28 -114 30 -144 11 -144 -5 0 -54 55 -110 123 -56 67 -106 127 -112 132
-24 23 93 -138 178 -245 76 -95 94 -125 105 -170 62 -271 232 -660 408 -935
l45 -70 -21 -180 c-12 -99 -27 -238 -32 -309 -14 -176 -13 -614 1 -819 7 -92
10 -170 6 -173 -3 -3 -30 8 -59 25 -81 46 -154 61 -294 61 -197 0 -414 -45
-549 -112 l-59 -30 27 -22 c71 -57 237 -84 399 -66 211 23 344 24 452 1 54
-11 103 -24 108 -29 4 -4 10 -30 13 -58 4 -48 15 -109 35 -211 l11 -51 -132
-178 c-72 -97 -165 -218 -206 -268 -42 -49 -82 -105 -89 -123 -18 -43 -18
-126 1 -188 23 -73 44 -214 51 -337 8 -125 7 -125 88 -9 159 228 279 481 336
709 6 23 15 42 20 42 5 0 21 -39 35 -87 281 -944 719 -1703 1367 -2369 l157
-161 -58 -134 c-32 -74 -85 -187 -119 -251 -33 -65 -65 -141 -71 -168 -13 -61
-14 -167 -2 -174 5 -3 24 19 44 48 57 85 430 436 465 436 7 0 56 -35 110 -79
448 -362 969 -658 1537 -871 181 -69 231 -99 142 -87 -25 4 -196 43 -379 87
-1018 247 -1254 292 -1523 292 -208 -1 -350 -44 -455 -141 l-45 -41 65 39
c101 61 177 83 308 89 223 9 338 -14 1387 -287 803 -209 1315 -291 2015 -321
242 -11 621 -1 765 20 33 4 132 18 220 30 220 29 519 90 710 144 165 47 398
126 392 132 -2 2 -50 -12 -108 -31 -468 -159 -997 -245 -1501 -245 -1077 0
-2143 318 -3038 907 -249 164 -540 387 -540 414 0 19 31 49 51 49 8 0 37 -19
64 -42 101 -83 314 -238 470 -340 1265 -828 2816 -1088 4303 -722 307 75 650
195 943 329 68 31 131 54 142 51 11 -3 62 21 130 60 180 104 175 110 -18 18
-600 -285 -1160 -442 -1850 -516 -162 -17 -838 -17 -1000 0 -711 76 -1270 236
-1880 537 -312 154 -555 302 -818 497 -131 98 -317 250 -356 291 l-23 25 18
69 c22 84 25 268 5 365 -7 38 -16 68 -20 68 -3 0 -23 -33 -43 -73 -41 -79
-132 -204 -161 -221 -16 -10 -32 3 -114 89 -338 357 -640 777 -863 1198 -45
87 -77 169 -140 369 l-81 257 60 120 c180 357 349 609 647 961 26 30 -3 5 -64
-57 -61 -62 -149 -161 -197 -220 -107 -134 -298 -418 -390 -580 -38 -68 -74
-123 -81 -123 -6 0 -33 53 -59 118 -26 64 -70 161 -97 216 -57 113 -96 269
-147 576 -55 333 -66 478 -66 875 0 442 23 681 101 1072 33 170 41 193 65 193
12 0 21 9 25 28 20 93 90 338 125 439 149 424 336 731 591 967 277 257 570
403 907 452 l96 14 -96 -5 c-361 -17 -746 -207 -1085 -537 -39 -38 -64 -56
-69 -49 -14 24 231 415 412 656 210 281 526 619 788 844 206 177 562 436 731
532 l41 23 134 -56 c165 -69 271 -104 372 -123 87 -17 237 -20 237 -6 0 18
-79 109 -145 167 -96 85 -168 124 -277 148 -16 4 -28 12 -28 20 0 13 226 126
385 191 472 195 974 322 1495 381 195 21 746 30 950 15 577 -44 1148 -178
1665 -391 192 -79 203 -82 75 -19 -321 157 -795 313 -1190 394 -847 173 -1730
145 -2552 -81 -355 -97 -669 -219 -1018 -396 -200 -102 -270 -132 -325 -143
-38 -7 -82 -16 -97 -20 -21 -5 -28 -4 -28 7 0 21 183 127 445 258 780 392
1615 590 2485 590 503 0 989 -78 1470 -235 74 -24 136 -43 137 -41 5 5 -178
69 -312 110 -259 77 -536 134 -840 173 -201 26 -819 25 -1055 0 -577 -64
-1099 -196 -1592 -403 -161 -68 -399 -182 -527 -252 -51 -29 -97 -52 -102 -52
-18 0 -8 24 25 64 87 107 151 235 180 364 25 112 22 297 -8 415 -25 98 -49
156 -58 141z m-168 -1167 c0 -7 -15 -21 -32 -32 -91 -52 -280 -182 -418 -286
-204 -154 -361 -289 -552 -477 -161 -158 -224 -199 -127 -82 83 102 196 219
423 440 173 167 239 224 361 310 83 57 173 112 200 122 60 21 145 24 145 5z
m-1480 -1225 c0 -4 -17 -32 -37 -62 -51 -76 -133 -222 -167 -300 -16 -35 -59
-112 -96 -170 -268 -421 -485 -898 -625 -1375 -29 -99 -56 -195 -60 -212 -9
-44 -22 -49 -51 -22 -31 29 -31 47 10 192 176 625 483 1255 859 1767 118 160
167 214 167 182z m-1413 -1824 c275 -292 267 -282 260 -321 -13 -70 -58 -270
-63 -278 -11 -18 -23 -7 -71 69 -142 220 -288 521 -348 720 -15 51 30 12 222
-190z m389 -463 c-3 -11 -17 -85 -31 -165 -15 -80 -31 -149 -36 -154 -10 -12
-36 9 -54 44 -11 22 -9 45 17 180 16 85 35 161 41 169 9 11 16 7 40 -20 17
-22 26 -41 23 -54z m-106 -437 c23 -31 23 -33 12 -152 -7 -67 -15 -163 -18
-214 -8 -105 -19 -120 -60 -82 -29 28 -30 54 -9 271 23 230 27 241 75 177z
m-11 -1354 c38 -85 54 -164 33 -164 -8 0 -58 59 -76 87 -9 17 -26 165 -19 176
8 14 19 -3 62 -99z m29 -204 c26 -16 32 -26 32 -55 0 -40 0 -40 -43 -19 -39
20 -47 31 -47 67 0 32 13 34 58 7z m20 -115 c21 -17 31 -37 36 -67 16 -103 83
-378 131 -543 57 -193 85 -272 171 -490 55 -139 55 -140 39 -177 -8 -21 -21
-38 -29 -38 -31 0 -235 559 -311 855 -42 163 -95 418 -95 458 0 34 19 35 58 2z
m523 -1507 c247 -495 578 -960 968 -1360 l134 -138 -23 -25 c-13 -14 -31 -25
-41 -25 -20 0 -264 257 -413 435 -195 234 -386 507 -536 765 -90 155 -230 431
-230 453 0 10 8 17 19 17 11 0 23 5 26 10 14 23 28 3 96 -132z"/>
<path d="M4830 11945 c0 -3 16 -40 35 -81 76 -166 204 -319 375 -449 52 -40
112 -91 133 -114 21 -24 40 -41 43 -39 7 8 -17 131 -37 192 -35 105 -87 186
-178 277 -93 93 -136 122 -263 175 -46 20 -89 38 -95 41 -7 3 -13 2 -13 -2z"/>
<path d="M11110 11410 c-11 -7 -2 -15 42 -34 31 -14 102 -48 157 -76 56 -27
101 -48 101 -46 0 7 -270 166 -282 166 -2 0 -10 -5 -18 -10z"/>
<path d="M1980 10598 c-34 -148 -20 -342 35 -513 54 -167 194 -415 308 -550
l34 -39 0 89 c-1 50 1 144 3 210 5 114 4 123 -22 177 -14 31 -61 95 -103 143
-43 48 -93 112 -112 143 -38 64 -86 205 -104 308 -7 38 -16 73 -20 77 -4 5
-12 -15 -19 -45z"/>
<path d="M7140 10479 c-52 -26 -204 -84 -338 -128 -284 -95 -423 -155 -547
-235 -208 -136 -363 -339 -353 -463 l3 -38 22 41 c104 195 361 366 714 474
242 74 363 139 486 259 61 60 119 129 112 134 -2 1 -47 -18 -99 -44z"/>
<path d="M2737 10086 c-6 -61 -25 -101 -102 -220 -85 -130 -126 -225 -133
-302 l-5 -65 126 123 c81 79 132 137 143 163 25 60 31 217 10 288 -9 31 -20
58 -25 61 -4 3 -11 -19 -14 -48z"/>
<path d="M1320 9977 c0 -2 23 -12 52 -22 71 -23 169 -73 328 -168 199 -119
410 -213 410 -183 0 27 -81 135 -154 204 -86 81 -165 123 -276 145 -74 15
-360 34 -360 24z"/>
<path d="M6715 9593 c-82 -20 -128 -25 -255 -26 -85 -1 -207 2 -270 6 -104 7
-119 6 -155 -12 l-40 -20 45 6 c37 4 77 -5 219 -52 163 -54 178 -57 255 -53
65 2 94 9 146 34 65 31 180 117 180 135 0 12 -7 11 -125 -18z"/>
<path d="M1683 9470 c-28 -4 -83 -17 -122 -29 -88 -27 -534 -250 -581 -290
l-35 -31 45 16 c76 25 206 43 434 59 289 20 386 46 480 131 22 19 43 31 48 26
4 -4 -12 -43 -37 -87 -63 -112 -100 -222 -140 -418 -19 -95 -51 -219 -70 -277
-38 -112 -85 -282 -85 -308 0 -9 33 41 73 112 39 70 112 180 160 244 48 64
101 140 117 167 44 77 70 176 70 264 0 95 -43 291 -67 309 -11 8 -17 23 -15
41 3 25 -2 30 -37 44 -37 15 -153 38 -176 36 -5 -1 -33 -5 -62 -9z"/>
<path d="M5415 9450 c-60 -5 -130 -15 -154 -24 -61 -23 -132 -77 -179 -138
-72 -94 -342 -515 -342 -533 0 -5 26 17 58 47 82 78 133 110 299 189 183 87
251 141 378 299 53 66 113 132 133 145 l37 25 -60 -2 c-33 0 -109 -4 -170 -8z"/>
<path d="M6002 9367 c-44 -55 -42 -213 4 -322 80 -189 265 -378 498 -508 45
-26 86 -47 91 -47 4 0 -23 23 -61 51 -146 108 -240 220 -284 336 -11 30 -31
105 -44 167 -13 62 -36 137 -51 167 -51 100 -131 183 -153 156z"/>
<path d="M5774 9311 c-54 -60 -178 -148 -434 -307 -241 -151 -314 -216 -372
-334 -20 -41 -44 -102 -53 -135 -19 -69 -33 -325 -18 -325 5 0 26 24 47 54 43
62 190 207 256 253 25 17 82 49 127 72 100 50 133 81 208 202 32 52 96 144
142 205 45 61 94 136 108 167 29 63 52 174 39 187 -5 4 -28 -13 -50 -39z"/>
<path d="M5149 7171 c-55 -56 -88 -102 -117 -159 -77 -154 -77 -273 -1 -512
37 -116 41 -138 38 -209 -5 -89 2 -91 47 -16 51 87 65 178 74 465 7 228 26
427 46 493 10 32 -10 17 -87 -62z"/>
<path d="M5829 6841 c-87 -52 -143 -76 -374 -165 -150 -57 -223 -148 -212
-264 2 -31 10 -69 17 -84 l13 -27 42 47 c30 33 84 71 175 122 102 58 150 92
209 150 89 87 249 283 229 280 -2 -1 -46 -27 -99 -59z"/>
<path d="M6350 6530 c-85 -43 -198 -77 -390 -116 -260 -52 -382 -97 -515 -188
l-60 -41 265 -9 c303 -10 368 -4 464 46 73 39 204 166 264 257 61 92 58 96
-28 51z"/>
<path d="M5104 6006 c-28 -7 -68 -23 -88 -35 l-37 -23 23 -25 c13 -14 61 -55
108 -93 242 -193 506 -319 763 -365 191 -34 482 -7 627 59 35 15 34 15 -40 8
-282 -27 -432 26 -840 297 -180 119 -254 157 -348 176 -79 17 -100 17 -168 1z"/>
<path d="M2751 5490 c-192 -51 -335 -158 -460 -344 -56 -83 -81 -128 -234
-421 -63 -121 -125 -238 -138 -259 -31 -53 -21 -46 169 111 241 201 317 288
514 588 143 218 202 270 368 319 l85 25 -115 0 c-82 0 -136 -6 -189 -19z"/>
<path d="M3748 2401 c217 -117 310 -223 389 -447 45 -126 124 -228 212 -274
37 -19 46 0 46 99 0 83 -2 92 -43 175 -90 180 -303 352 -564 454 -122 48 -138
45 -40 -7z"/>
<path d="M3870 1524 c-62 -17 -132 -59 -188 -113 -47 -45 -97 -110 -90 -116 3
-3 39 10 80 30 147 67 289 100 499 114 99 7 149 15 182 29 49 22 77 49 32 32
-41 -15 -98 -12 -249 15 -159 28 -189 29 -266 9z"/>
<path d="M4482 1151 c-273 -274 -458 -521 -527 -705 -38 -100 -27 -110 24 -21
59 104 149 216 213 263 29 21 89 59 133 83 107 59 175 128 198 199 31 95 85
295 82 298 -2 2 -57 -50 -123 -117z"/>
<path d="M4750 1225 c-23 -68 -13 -191 26 -341 29 -113 35 -151 31 -204 -3
-36 -8 -74 -12 -85 -7 -16 -2 -14 22 8 41 38 90 147 103 229 14 92 1 144 -70
269 -33 57 -62 116 -65 132 -9 37 -21 34 -35 -8z"/>
</g>
</svg>
